<?xml version="1.0" standalone="no"?>
<!DOCTYPE svg PUBLIC "-//W3C//DTD SVG 20010904//EN"
 "http://www.w3.org/TR/2001/REC-SVG-20010904/DTD/svg10.dtd">
<svg version="1.0" xmlns="http://www.w3.org/2000/svg"
 width="1300.000000pt" height="507.000000pt" viewBox="0 0 1300.000000 507.000000"
 preserveAspectRatio="xMidYMid meet">
<metadata>
Created by potrace 1.16, written by Peter Selinger 2001-2019
</metadata>
<g transform="translate(0.000000,507.000000) scale(0.100000,-0.100000)"
fill="#000000" stroke="none">
<path d="M2914 4895 c2 -11 7 -35 11 -53 4 -18 11 -30 16 -27 5 4 6 -1 3 -9
-3 -8 8 -44 25 -80 42 -89 133 -184 220 -230 89 -47 99 -46 25 2 -61 39 -135
116 -160 165 -9 16 -10 27 -4 27 5 0 10 -4 10 -10 0 -13 119 -139 144 -152 12
-6 -2 13 -30 43 -28 30 -63 73 -78 96 -16 24 -33 40 -39 36 -6 -3 -7 -1 -3 5
4 6 0 25 -9 43 -27 51 -11 43 27 -13 40 -60 77 -106 127 -158 l33 -35 -34 45
c-20 25 -59 81 -88 125 -57 86 -94 128 -104 117 -4 -3 -4 1 0 11 3 9 2 17 -4
17 -5 0 -13 -7 -16 -16 -10 -26 -36 2 -37 40 -2 27 -2 28 -6 6 l-5 -24 -14 24
c-12 20 -14 21 -10 5z"/>
<path d="M689 4821 c-43 -44 -39 -73 21 -131 84 -82 358 -297 425 -333 17 -9
50 -31 74 -49 30 -22 45 -29 48 -20 3 6 10 9 16 5 7 -3 9 -2 4 2 -4 5 0 16 8
26 16 17 12 69 -6 69 -5 0 -7 6 -5 13 1 6 1 9 -1 5 -3 -5 -13 -8 -23 -8 -10 0
-30 -15 -44 -32 -23 -30 -27 -31 -41 -18 -14 14 -12 19 17 51 37 40 75 54 97
36 8 -7 12 -7 8 -1 -3 6 -39 33 -79 59 -105 70 -272 200 -348 271 -101 94
-124 102 -171 55z"/>
<path d="M3354 4772 c-1 -15 -4 -40 -9 -55 -4 -16 -3 -73 4 -127 12 -114 55
-240 105 -315 34 -51 142 -171 112 -125 -96 151 -137 248 -142 340 l-4 65 19
-70 c23 -88 42 -136 76 -200 36 -67 51 -81 26 -25 -29 65 -67 220 -81 328 -13
105 -8 134 9 45 27 -138 88 -360 96 -351 3 2 -6 56 -19 119 -14 63 -30 150
-37 194 -6 44 -15 84 -20 89 -4 5 -5 22 -2 37 3 18 1 29 -6 29 -6 0 -11 10
-12 23 -1 17 -3 15 -10 -10 -5 -18 -12 -33 -15 -33 -4 0 -4 6 -1 14 4 10 -6
18 -31 27 -20 6 -42 15 -47 20 -7 5 -11 -2 -11 -19z"/>
<path d="M3505 4750 c3 -14 21 -101 41 -195 20 -93 43 -206 52 -250 12 -58 18
-72 20 -50 5 45 -17 235 -42 364 -19 101 -23 111 -33 90 -11 -22 -12 -21 -7
11 2 19 1 29 -2 21 -5 -11 -10 -8 -20 10 l-14 24 5 -25z"/>
<path d="M3606 4758 c3 -4 0 -8 -6 -8 -6 0 -8 -5 -4 -11 4 -8 9 -7 15 2 7 11
9 10 9 -4 0 -14 -5 -16 -27 -11 -23 6 -25 5 -19 -12 28 -71 50 -212 79 -494 2
-19 4 21 5 90 0 69 -3 160 -6 202 -4 42 -4 74 -1 72 15 -9 33 -156 33 -278 1
-125 1 -127 13 -75 24 103 27 237 9 329 -17 81 -39 126 -57 114 -11 -7 -11 7
0 24 6 10 10 8 14 -9 4 -13 9 -21 12 -18 3 3 -1 21 -9 40 l-15 34 -12 -33
c-14 -41 -22 -37 -10 6 6 21 6 32 0 32 -6 0 -8 4 -5 8 3 5 -1 9 -9 9 -8 0 -12
-4 -9 -9z"/>
<path d="M2715 4541 c9 -28 80 -154 103 -183 79 -99 172 -180 272 -236 69 -39
218 -88 290 -96 l55 -6 -90 33 c-92 35 -128 51 -203 95 -54 31 -48 41 8 12 50
-25 266 -110 281 -110 6 0 -56 33 -138 74 -146 74 -293 162 -308 187 -5 6 -4
10 1 7 187 -110 333 -186 417 -218 65 -25 58 -20 -158 115 -259 162 -340 215
-331 215 8 0 39 -16 215 -113 56 -31 213 -125 266 -159 l30 -20 -30 27 c-52
46 -172 133 -247 180 -83 52 -77 60 9 14 127 -69 213 -129 280 -197 25 -26 32
-30 24 -14 -21 39 -142 156 -208 201 -35 23 -63 44 -63 47 0 3 30 -11 68 -31
74 -41 186 -143 238 -220 41 -60 44 -53 8 18 -65 127 -173 233 -309 304 -108
55 -223 83 -369 90 l-118 6 7 -22z"/>
<path d="M1300 4426 c0 -2 7 -12 16 -21 9 -9 20 -30 23 -47 5 -25 16 -34 59
-52 29 -13 52 -27 50 -32 -2 -5 -6 -8 -10 -7 -4 2 -5 -4 -2 -12 4 -8 1 -15 -5
-15 -6 0 -11 5 -11 11 0 5 -5 7 -10 4 -6 -4 -26 3 -44 14 -35 22 -60 20 -70
-4 -4 -11 51 -55 69 -55 3 0 35 -19 72 -41 57 -35 277 -145 403 -201 230 -103
629 -217 900 -258 286 -42 637 -50 845 -19 39 6 79 11 90 11 11 0 49 5 85 10
36 6 70 11 77 11 7 0 9 5 6 10 -4 6 7 7 28 4 19 -3 61 0 94 7 36 9 50 15 35
16 l-25 2 25 9 c21 7 20 8 -9 4 -18 -3 -39 -5 -45 -6 -6 0 -2 -5 9 -10 17 -8
16 -9 -7 -6 -15 2 -30 -1 -33 -7 -3 -8 -7 -8 -10 0 -3 7 -14 10 -24 7 -10 -2
-33 0 -52 6 -27 9 -28 10 -6 7 18 -2 27 1 27 10 0 17 27 18 32 2 6 -17 38 14
38 36 0 9 12 16 33 19 l32 4 -33 1 c-26 2 -33 6 -30 20 3 14 13 17 53 15 38
-1 44 1 25 7 -25 8 -25 8 5 9 27 1 28 3 10 13 -19 11 -19 11 0 20 14 5 10 6
-12 2 -18 -3 -34 -1 -38 6 -5 7 -20 9 -41 5 -19 -3 -34 -2 -34 3 0 12 -66 27
-98 24 -15 -2 -21 1 -17 8 3 6 3 10 -2 9 -18 -4 -72 14 -67 22 3 5 1 9 -5 9
-24 0 -18 -19 9 -30 17 -7 28 -15 25 -18 -2 -3 3 -11 13 -19 15 -13 15 -13 -5
-3 -13 6 -23 14 -23 19 0 4 -11 13 -25 19 -13 6 -22 17 -20 24 3 8 -13 23 -38
36 l-42 23 55 -56 c30 -31 79 -72 107 -92 50 -35 52 -37 33 -50 -11 -8 -24
-12 -29 -9 -5 3 -62 -1 -127 -8 -473 -57 -948 -6 -1429 152 -276 90 -564 224
-820 381 -38 24 -73 45 -77 48 -5 2 -8 2 -8 -1z"/>
<path d="M9273 4226 c-88 -29 -159 -92 -195 -173 l-19 -43 -1050 0 c-760 0
-1057 -3 -1072 -11 -12 -7 -54 -36 -94 -65 -39 -30 -155 -114 -256 -187 -595
-428 -634 -459 -689 -557 -17 -30 -33 -57 -34 -59 -2 -2 -21 12 -43 31 -177
161 -496 295 -811 342 -150 22 -310 31 -310 17 0 -33 -100 -45 -141 -17 -13 9
-6 11 35 12 34 1 44 -1 31 -6 -15 -6 -12 -8 15 -7 19 0 29 2 22 4 -6 3 -9 9
-6 15 10 15 -293 0 -449 -22 -76 -12 -189 -32 -250 -45 -346 -75 -575 -113
-822 -137 -172 -17 -636 -16 -795 1 -219 23 -499 80 -628 128 -51 19 -68 10
-21 -10 19 -8 68 -30 109 -49 505 -233 1313 -271 2075 -96 517 118 911 143
1279 83 212 -35 435 -111 584 -200 122 -72 114 -60 100 -148 -11 -76 -2 -178
21 -225 62 -128 93 -170 159 -215 133 -93 305 -97 462 -10 84 46 107 64 337
265 218 190 189 181 267 85 26 -31 42 -44 50 -38 6 5 24 8 39 6 16 -2 26 -1
23 3 -10 10 -50 10 -62 1 -8 -6 -17 0 -28 16 -15 22 -15 29 -4 53 10 18 20 26
33 24 16 -3 18 -1 8 9 -7 7 -13 24 -13 39 0 20 -2 22 -10 10 -5 -8 -7 -24 -4
-35 4 -15 3 -16 -4 -6 -8 11 -14 9 -31 -8 -12 -12 -26 -19 -31 -16 -6 4 4 18
21 32 18 15 28 32 25 40 -3 8 0 23 8 34 12 17 14 18 20 4 3 -9 2 -14 -3 -11
-5 3 -12 -1 -15 -9 -4 -13 -2 -14 12 -6 13 7 23 3 45 -22 l29 -32 -28 40 c-15
22 -38 52 -50 67 -13 16 -25 36 -29 47 -3 10 -18 24 -33 30 -50 21 -50 21
-371 -262 -225 -197 -252 -217 -343 -248 -73 -24 -134 -21 -196 10 -79 40
-144 152 -146 250 -1 127 46 203 195 311 57 42 263 192 457 333 l353 257 1029
0 1029 0 22 -50 c26 -62 108 -141 171 -164 71 -27 199 -19 260 17 181 106 219
337 81 485 -27 29 -70 60 -98 73 -61 27 -164 34 -222 15z m191 -154 c154 -108
56 -349 -130 -319 -43 7 -99 48 -125 91 -23 37 -25 112 -5 159 42 99 169 133
260 69z"/>
<path d="M9345 4049 c-6 -9 -4 -11 8 -6 18 7 24 -8 7 -18 -5 -3 -9 -27 -7 -53
1 -26 -2 -57 -6 -68 -5 -15 -3 -27 8 -37 11 -12 12 -17 2 -21 -9 -5 -9 -7 1
-12 9 -4 7 -11 -9 -25 -21 -18 -21 -18 31 -15 46 2 57 7 87 39 29 32 33 43 33
92 0 48 -4 60 -33 91 -35 39 -107 58 -122 33z"/>
<path d="M1400 4005 c7 -8 18 -15 25 -15 7 0 19 -8 26 -17 11 -15 11 -16 -1
-5 -21 18 -40 15 -40 -8 0 -11 3 -19 8 -19 19 3 23 -2 12 -16 -10 -12 -5 -21
25 -52 21 -21 70 -81 109 -134 39 -53 81 -109 94 -125 l23 -29 -22 40 c-35 62
-109 176 -141 218 -39 50 -19 48 23 -3 18 -21 37 -36 42 -33 6 3 7 1 4 -4 -4
-6 2 -21 12 -34 10 -13 39 -60 65 -104 51 -85 52 -72 4 35 -39 87 -88 161
-101 153 -5 -3 -7 -2 -4 4 9 14 -62 95 -75 87 -7 -4 -8 -2 -4 4 4 6 -13 24
-38 41 -49 34 -65 39 -46 16z"/>
<path d="M11780 4010 c0 -5 6 -10 13 -10 8 0 7 -4 -3 -10 -13 -9 -13 -11 -1
-19 11 -7 12 -13 4 -23 -14 -17 -5 -168 11 -169 6 0 -2 -7 -19 -14 -30 -14
-29 -14 22 -11 91 6 140 59 130 143 -5 47 -32 85 -79 109 -31 16 -78 19 -78 4z"/>
<path d="M1353 3998 c3 -9 -1 -19 -9 -22 -8 -3 -14 -15 -14 -26 0 -12 -5 -18
-10 -15 -6 4 -8 11 -4 16 3 6 -2 17 -12 24 -23 18 -45 19 -24 2 8 -7 20 -21
26 -32 6 -11 17 -20 25 -20 8 0 14 -5 14 -12 0 -6 20 -33 44 -60 188 -204 261
-282 261 -275 -1 14 -149 209 -200 262 -8 9 -28 32 -43 53 -16 21 -33 35 -38
31 -5 -3 -8 0 -7 8 2 7 -3 12 -9 11 -18 -4 -16 12 2 27 12 10 16 8 24 -13 10
-27 37 -42 46 -26 4 5 1 8 -7 7 -7 -2 -14 7 -16 20 -2 13 -11 26 -20 29 -9 4
-21 11 -25 17 -6 7 -7 5 -4 -6z"/>
<path d="M1245 3920 c-3 -5 -15 -10 -26 -10 -10 0 -19 -6 -19 -12 0 -9 -4 -8
-11 2 -7 11 -9 7 -5 -16 5 -39 55 -126 67 -118 5 3 6 -3 2 -12 -5 -13 -3 -15
7 -9 8 5 11 4 7 -2 -15 -25 116 -143 213 -193 46 -24 161 -62 167 -56 2 2 -15
11 -39 21 -98 38 -214 131 -271 215 -28 42 -25 41 44 -26 71 -68 136 -118 189
-143 21 -10 20 -8 -5 11 -56 43 -173 158 -200 198 -15 22 -31 37 -36 35 -4 -3
-11 0 -15 6 -4 8 -9 7 -16 -2 -8 -11 -9 -11 -5 1 2 8 10 14 16 13 15 -4 14 3
-6 34 -10 15 -13 24 -6 20 6 -4 13 -4 16 0 2 5 2 2 0 -5 -3 -15 162 -189 242
-256 39 -32 29 -19 -42 59 -50 55 -101 112 -113 128 -12 15 -27 24 -33 20 -7
-3 -9 -3 -5 2 7 8 -33 70 -61 93 -18 15 -47 16 -56 2z"/>
<path d="M868 3784 c18 -14 30 -29 27 -34 -3 -4 2 -10 10 -14 8 -3 12 -12 9
-20 -13 -33 -36 -25 -93 29 -32 30 -61 55 -65 55 -4 0 15 -22 43 -49 114 -110
215 -152 360 -150 l86 2 -70 8 c-92 12 -167 34 -196 58 -22 18 -18 18 46 -4
39 -13 90 -27 115 -30 40 -5 37 -3 -25 18 -84 28 -212 90 -197 95 6 2 32 -7
59 -19 61 -28 155 -60 160 -55 2 2 -24 15 -59 29 -35 14 -85 36 -113 48 -27
13 -56 22 -64 20 -8 -1 -10 2 -5 11 4 7 4 10 -1 6 -4 -4 -14 -1 -22 7 -8 8
-20 15 -26 15 -7 0 3 -12 21 -26z"/>
<path d="M1085 3566 c-88 -21 -182 -57 -260 -101 l-69 -38 33 -27 c17 -15 64
-43 104 -62 199 -97 397 -108 615 -36 51 17 91 32 89 35 -2 2 -33 -4 -68 -12
-35 -9 -116 -18 -179 -20 l-115 -5 159 25 c162 25 223 43 106 31 -134 -13
-297 -17 -355 -8 l-60 10 85 1 c135 2 364 21 375 32 5 5 -25 9 -81 9 -50 0
-180 3 -290 7 -239 9 -186 20 116 23 215 3 196 13 -50 28 l-125 8 88 8 c79 8
213 -1 312 -20 23 -4 26 -3 14 5 -31 20 -183 51 -249 51 -46 0 -61 3 -50 10
43 28 221 0 345 -54 33 -14 51 -19 40 -10 -43 34 -108 67 -178 91 -90 31 -259
40 -352 19z"/>
<path d="M8486 3411 c-19 -7 -18 -8 5 -15 l24 -7 -30 -14 c-52 -23 -80 -61
-80 -110 0 -56 29 -96 81 -112 21 -6 33 -12 26 -12 -7 -1 -10 -6 -6 -13 5 -8
0 -9 -14 -6 -12 4 -20 2 -16 -3 9 -15 73 -10 111 7 78 38 108 143 60 215 -22
34 -97 80 -127 78 -8 0 -24 -4 -34 -8z m109 -76 c37 -37 35 -106 -4 -146 -16
-16 -39 -29 -50 -29 -19 0 -21 6 -21 63 0 98 9 137 32 137 10 0 30 -11 43 -25z"/>
<path d="M12650 3329 c-12 -8 -11 -9 5 -5 19 5 20 1 20 -89 0 -56 -4 -95 -10
-96 -5 0 -1 -4 10 -9 18 -8 18 -9 2 -9 -10 -1 -15 -5 -12 -11 3 -5 1 -10 -5
-10 -6 0 -8 -4 -5 -10 3 -5 24 -10 46 -10 31 0 47 7 75 33 30 28 37 42 41 83
4 40 0 55 -19 84 -13 19 -35 40 -48 47 -30 15 -80 16 -100 2z"/>
<path d="M8298 3006 c23 -12 23 -13 -19 -31 -78 -35 -96 -129 -37 -192 12 -12
26 -23 30 -23 5 0 16 -6 24 -14 12 -13 11 -15 -8 -19 -13 -2 0 -5 27 -6 54 -1
100 18 122 49 14 20 29 20 610 20 526 0 594 2 583 15 -7 8 -17 12 -23 8 -5 -3
-7 -2 -4 4 6 10 -59 80 -71 76 -4 -2 -7 1 -7 7 0 5 -9 16 -20 24 -17 13 -91
15 -536 16 l-517 0 -16 25 c-22 34 -51 47 -110 51 -46 3 -49 2 -28 -10z m75
-47 c40 -18 60 -72 46 -123 -6 -23 -21 -42 -43 -55 -18 -12 -35 -21 -38 -21
-3 0 -6 39 -7 86 -1 48 -4 91 -7 95 -6 11 4 29 16 29 5 0 20 -5 33 -11z"/>
<path d="M9530 2925 c6 -8 8 -20 4 -26 -4 -7 -3 -9 3 -6 6 4 34 -18 64 -47
l54 -54 130 -1 c117 -2 131 -4 145 -23 8 -11 40 -50 70 -86 69 -84 59 -71 190
-237 62 -77 125 -152 141 -167 l29 -28 586 0 586 0 11 -30 c6 -16 15 -30 20
-30 4 0 6 -4 3 -8 -8 -14 86 -108 132 -131 68 -35 167 -39 242 -11 119 44 190
142 198 271 4 67 1 83 -23 138 -31 69 -89 126 -160 161 -60 29 -175 30 -236 3
-55 -25 -111 -71 -102 -85 3 -6 1 -8 -5 -4 -14 8 -53 -48 -61 -88 l-7 -31
-564 0 -564 0 -149 185 c-82 102 -162 202 -179 222 -17 21 -34 35 -39 32 -5
-3 -7 1 -4 8 3 7 -10 30 -29 51 l-35 37 -232 0 c-201 0 -230 -2 -219 -15z
m2366 -428 c76 -29 116 -90 116 -177 0 -56 -32 -116 -77 -146 -136 -89 -315
36 -276 193 16 63 42 96 93 121 48 23 98 26 144 9z"/>
<path d="M11806 2451 c-19 -7 -19 -8 2 -13 18 -5 22 -11 17 -31 -4 -13 -7 -67
-8 -121 l-2 -96 25 0 c40 0 93 34 112 71 36 70 11 149 -56 180 -44 20 -60 22
-90 10z"/>
<path d="M2435 2819 c-173 -13 -168 -10 -102 -77 l56 -57 303 1 c167 1 314 6
328 12 19 7 5 9 -57 8 -45 0 -78 3 -74 7 5 5 30 9 55 9 29 1 42 4 34 9 -9 6
-8 9 7 10 17 1 16 2 -5 9 -23 7 -23 8 -3 9 29 1 54 -9 47 -20 -3 -5 0 -9 5 -9
6 0 11 7 11 15 0 11 7 14 28 10 21 -4 23 -3 7 3 -16 7 -17 10 -5 14 8 3 4 3
-10 1 l-25 -4 25 21 25 20 -25 -1 c-14 0 -65 3 -115 7 -135 11 -386 13 -510 3z"/>
<path d="M5054 2792 c-27 -10 -64 -27 -81 -37 -17 -11 -211 -186 -432 -388
l-402 -368 -29 21 c-129 92 -451 186 -755 221 -114 13 -500 18 -511 6 -4 -4
23 -39 61 -77 65 -66 72 -70 115 -70 l45 -1 -24 -20 -25 -20 25 -25 c22 -22
29 -23 53 -14 138 52 351 59 531 16 125 -29 333 -104 373 -134 l23 -18 -28
-59 c-24 -53 -28 -72 -28 -155 0 -82 4 -103 27 -153 52 -111 171 -197 305
-220 l63 -11 0 -56 c0 -116 56 -220 158 -295 50 -36 154 -75 201 -75 28 0 28
-1 34 -75 10 -138 87 -247 217 -309 38 -19 94 -37 123 -40 l54 -7 5 -77 c6
-98 40 -172 108 -236 104 -97 249 -138 361 -101 83 28 140 70 329 244 l174
162 26 -28 c14 -15 71 -83 127 -149 158 -188 216 -224 366 -224 69 0 91 4 142
28 56 27 155 107 155 125 0 5 7 15 16 24 8 9 13 22 10 30 -3 8 -1 11 4 8 6 -3
10 -1 10 4 0 18 -5 26 -13 23 -5 -1 -6 2 -2 7 3 6 12 8 19 5 14 -6 32 58 21
76 -3 5 0 18 7 29 9 15 9 23 -1 35 -12 14 -9 16 26 16 21 0 44 5 49 10 6 6 27
11 48 12 20 1 39 5 41 9 5 7 -33 20 -68 24 -10 1 -22 6 -28 12 -7 7 -2 9 18 7
21 -3 23 -2 9 4 -17 8 -18 9 -1 25 16 17 15 17 -27 11 -43 -7 -46 8 -3 19 15
4 13 5 -7 6 -16 0 -28 5 -28 10 0 5 -17 11 -37 15 -21 3 -58 22 -82 41 -52 42
-70 43 -110 9 -37 -31 -41 -74 -10 -105 31 -31 59 -99 59 -147 0 -114 -108
-222 -222 -222 -70 1 -117 29 -190 116 -36 43 -96 114 -132 156 -36 43 -66 81
-66 86 0 4 88 88 195 187 108 99 210 201 226 227 134 208 23 490 -221 562 -30
9 -68 16 -86 16 l-31 0 -5 78 c-6 98 -33 157 -109 234 -66 67 -143 107 -223
115 l-53 6 -6 72 c-7 92 -40 164 -107 234 -59 62 -154 110 -233 118 l-55 6 -4
71 c-7 131 -86 250 -211 317 -52 28 -74 33 -142 36 -59 3 -93 -1 -131 -15z
m191 -161 c48 -22 109 -84 125 -126 18 -45 14 -119 -8 -162 -13 -25 -120 -130
-298 -293 -152 -140 -352 -324 -443 -407 -91 -84 -182 -160 -201 -170 -93 -45
-207 -4 -267 97 -39 64 -43 116 -14 182 19 45 67 91 540 523 91 83 210 192
265 244 56 52 119 102 141 112 51 24 109 24 160 0z m376 -421 c48 -13 118 -75
140 -124 22 -49 24 -114 5 -160 -8 -19 -36 -53 -62 -77 -27 -24 -112 -102
-190 -174 -137 -126 -332 -305 -580 -532 -99 -90 -128 -112 -161 -117 -123
-21 -253 87 -253 210 0 96 7 105 440 499 102 93 241 220 310 284 69 63 139
128 156 144 54 49 124 66 195 47z m414 -439 c83 -38 135 -115 135 -200 0 -98
31 -65 -600 -642 -365 -333 -344 -316 -401 -328 -93 -20 -164 13 -224 102 -58
85 -45 181 31 248 21 19 77 70 124 114 299 281 765 702 788 712 39 18 101 15
147 -6z m370 -422 c87 -22 165 -119 165 -207 0 -91 -9 -101 -384 -445 -193
-177 -394 -362 -446 -411 -98 -91 -153 -125 -204 -126 -78 0 -169 57 -206 131
-41 80 -17 186 57 250 22 19 103 93 179 164 297 277 655 604 682 622 21 14 68
29 100 32 7 1 33 -4 57 -10z"/>
<path d="M2125 2779 c-220 -39 -497 -115 -670 -186 -112 -46 -295 -136 -295
-146 0 -5 8 -6 18 -2 9 3 69 22 132 40 279 82 604 147 880 174 58 6 125 14
149 17 l44 6 -59 59 c-32 32 -65 59 -74 58 -8 0 -64 -9 -125 -20z"/>
<path d="M586 2761 c-4 -6 0 -11 11 -12 12 0 9 -5 -11 -13 -21 -10 -25 -15
-15 -20 11 -5 11 -7 2 -12 -21 -9 -15 -24 10 -24 73 1 343 -53 475 -95 39 -13
72 -21 72 -19 0 10 -243 94 -360 125 -72 19 -28 22 59 4 97 -20 218 -58 286
-91 42 -21 46 -22 25 -5 -47 38 -225 121 -305 142 -97 25 -239 37 -249 20z"/>
<path d="M537 2650 c-43 -8 -56 -17 -36 -25 14 -5 575 -86 587 -84 15 1 -78
31 -170 54 -84 22 -324 67 -338 64 -3 -1 -22 -5 -43 -9z"/>
<path d="M506 2585 c4 -8 2 -15 -4 -15 -5 0 -21 -9 -36 -21 -21 -17 -24 -24
-15 -40 9 -18 8 -19 -18 -13 -26 7 -27 6 -10 -10 9 -9 22 -14 28 -10 7 4 9 3
6 -4 -10 -14 140 -67 236 -82 108 -18 222 -8 338 29 52 17 103 37 114 46 18
13 16 13 -21 1 -117 -40 -343 -46 -429 -12 l-40 15 65 -7 c91 -10 255 -5 319
10 52 13 49 13 -85 13 -137 1 -345 31 -384 56 -16 11 13 9 140 -11 65 -10 347
-23 300 -14 -14 2 -74 12 -135 20 -60 8 -166 26 -234 40 -147 28 -142 28 -135
9z"/>
<path d="M1005 2390 c-129 -34 -223 -85 -326 -178 -95 -86 -199 -247 -257
-400 l-20 -52 58 0 c79 0 234 41 322 85 185 93 337 244 428 425 26 52 22 49
-48 -42 -56 -71 -207 -218 -224 -218 -6 0 23 35 64 78 65 66 105 112 187 217
8 11 -34 -28 -94 -86 -142 -137 -147 -142 -230 -204 -68 -51 -115 -80 -115
-71 0 2 42 37 93 79 114 92 259 228 289 270 12 18 16 27 8 21 -8 -7 -116 -89
-240 -184 -124 -94 -234 -179 -245 -189 -12 -9 -27 -21 -35 -25 -21 -12 53 59
141 134 169 146 192 164 256 212 105 77 101 77 -27 -1 -86 -52 -212 -141 -252
-179 -16 -14 -28 -21 -28 -15 0 13 144 140 210 186 25 18 77 49 115 69 80 43
80 46 0 18 -68 -23 -166 -77 -227 -123 -73 -56 -76 -51 -8 13 71 68 179 126
295 159 l70 20 -45 0 c-25 0 -76 -8 -115 -19z"/>
<path d="M9085 2281 c-16 -10 -115 -105 -220 -210 l-190 -191 -253 0 c-252 0
-253 0 -240 -20 7 -12 27 -47 44 -78 l30 -57 220 -3 c128 -2 233 1 254 7 26 8
87 63 234 211 l200 200 395 0 396 0 29 -41 29 -41 53 53 c30 29 54 58 54 64 0
5 -23 36 -51 68 l-51 57 -451 0 c-426 0 -454 -1 -482 -19z"/>
<path d="M675 2254 c-54 -48 -169 -103 -230 -110 l-50 -5 67 25 c60 22 158 73
158 82 0 2 -21 -6 -47 -17 -57 -25 -219 -69 -251 -69 -13 0 -20 4 -17 10 4 6
10 8 15 5 8 -5 238 69 249 81 3 4 -5 4 -19 0 -14 -4 -68 -18 -120 -31 -96 -25
-188 -53 -204 -63 -5 -3 -1 -11 9 -18 15 -11 13 -13 -18 -19 -20 -4 -40 -4
-46 0 -6 3 -11 2 -11 -4 0 -5 12 -12 28 -14 26 -4 25 -4 -5 -6 -40 -1 -52 -17
-15 -21 213 -19 362 25 490 146 72 68 83 86 17 28z"/>
<path d="M7400 2232 c-6 -26 -14 -108 -17 -182 -4 -107 -2 -144 10 -179 9 -25
13 -49 10 -54 -3 -6 -1 -7 5 -3 7 4 10 19 7 34 -5 26 -5 26 5 4 7 -16 7 -30 0
-43 -6 -11 -7 -19 -1 -19 5 0 8 -8 7 -17 0 -10 4 -17 11 -16 8 2 10 -4 6 -14
-4 -10 -2 -14 4 -10 5 4 16 -6 23 -21 9 -19 14 -23 18 -12 3 7 0 16 -7 18 -6
2 -9 8 -5 13 3 5 0 9 -6 9 -7 0 -10 6 -7 14 3 8 -1 17 -9 20 -8 3 -14 11 -14
18 0 9 3 9 10 -2 7 -10 8 0 5 35 -2 28 -2 42 1 32 3 -9 10 -14 16 -11 6 4 8
-1 4 -14 -4 -11 -2 -23 4 -27 6 -3 8 -11 5 -16 -4 -5 -1 -9 4 -9 6 0 11 -12
12 -27 0 -16 3 -22 6 -15 2 6 9 9 15 6 5 -4 4 4 -3 17 -13 24 -50 191 -44 197
2 2 8 -14 15 -35 49 -156 74 -159 31 -2 -39 141 -46 190 -15 101 16 -44 30
-70 36 -66 7 4 8 2 4 -5 -9 -14 62 -221 75 -221 5 0 9 7 9 15 0 8 -5 15 -10
15 -6 0 -8 11 -4 25 4 16 2 25 -6 25 -6 0 -9 4 -6 9 3 5 -5 48 -19 96 -14 48
-24 89 -22 92 7 7 53 -111 72 -185 11 -39 23 -68 27 -64 8 8 4 38 -17 130 -8
31 11 19 19 -12 3 -14 11 -38 18 -53 6 -15 12 -34 12 -40 1 -7 6 -13 11 -13 6
0 9 17 7 38 -4 52 -33 153 -42 147 -5 -3 -6 3 -4 12 7 28 -90 175 -156 236
-91 85 -96 86 -110 29z"/>
<path d="M2648 2235 c-181 -20 -349 -48 -336 -56 7 -5 -3 -8 -22 -8 -58 1
-134 -11 -145 -22 -7 -8 -4 -10 10 -5 11 3 27 1 35 -5 12 -8 11 -9 -5 -5 -27
7 -54 -8 -30 -17 9 -4 14 -3 11 2 -7 11 81 7 91 -4 4 -4 0 -5 -9 -2 -20 7 -27
-1 -30 -36 -1 -14 -5 -24 -9 -21 -4 2 -9 -6 -12 -17 -5 -18 -11 -20 -34 -15
-18 4 -23 3 -15 -2 17 -11 -38 -24 -65 -16 -16 5 -16 4 -2 -5 11 -7 56 -2 160
18 161 32 274 50 364 58 59 5 61 6 137 81 43 43 78 80 78 85 0 9 -25 8 -172
-8z"/>
<path d="M2758 2160 c-36 -38 -65 -70 -63 -72 3 -2 37 -1 77 3 40 4 100 8 133
8 l59 1 -64 65 c-35 36 -67 65 -70 64 -3 0 -35 -31 -72 -69z"/>
<path d="M6970 2161 c0 -62 78 -233 131 -286 17 -17 21 -18 29 -5 10 16 3 33
-10 25 -5 -3 -12 0 -16 6 -4 8 -3 9 4 5 7 -4 12 -2 12 5 0 6 22 -9 48 -33 27
-25 59 -51 73 -57 20 -11 19 -8 -7 16 -38 35 -124 134 -124 144 0 3 26 -19 58
-50 76 -75 117 -107 66 -51 -196 213 -209 245 -22 58 124 -125 128 -120 14 17
-27 33 -59 68 -70 77 -12 10 -16 18 -11 18 13 0 68 -51 123 -114 51 -59 55
-51 7 15 -19 27 -31 49 -27 49 12 0 43 -36 87 -100 44 -64 39 -40 -8 39 -71
118 -194 207 -329 235 -23 5 -28 3 -28 -13z"/>
<path d="M10071 2106 l-53 -54 129 -163 128 -164 218 -5 c119 -3 217 -3 217 0
0 2 -33 37 -72 77 l-72 73 -102 0 -102 0 -114 145 c-62 80 -115 145 -118 145
-3 0 -30 -24 -59 -54z"/>
<path d="M10991 2094 c-30 -8 -69 -23 -87 -34 -46 -29 -102 -95 -124 -146
l-19 -44 -93 0 -92 0 74 -75 c41 -41 83 -75 93 -75 11 0 23 -13 32 -33 8 -19
21 -39 29 -46 9 -7 14 -17 11 -21 -2 -3 14 -24 35 -45 22 -22 40 -35 40 -30 0
5 10 -1 23 -12 36 -32 88 -48 158 -47 181 1 324 159 305 337 -20 190 -206 321
-385 271z m183 -158 c107 -81 90 -252 -31 -302 -159 -67 -310 95 -230 246 48
91 179 119 261 56z"/>
<path d="M11048 1923 c-10 -2 -18 -9 -18 -14 0 -6 4 -8 8 -5 4 2 14 1 22 -5
12 -7 11 -9 -5 -9 -11 0 -15 -4 -10 -8 6 -4 10 -55 10 -115 l0 -109 40 7 c129
20 142 198 18 251 -33 14 -36 15 -65 7z"/>
<path d="M2505 1980 c-93 -37 -164 -74 -158 -83 3 -5 0 -8 -8 -5 -7 2 -20 -1
-29 -8 -8 -7 -26 -21 -39 -31 l-23 -19 36 -27 c20 -16 36 -23 36 -17 0 6 4 9
10 5 5 -3 16 7 25 22 9 15 14 20 11 9 -6 -17 -4 -17 26 3 18 11 32 25 31 31
-2 5 3 7 11 4 7 -3 16 2 19 10 4 9 11 16 17 16 6 0 8 -5 5 -11 -4 -5 10 -3 32
6 21 10 85 35 143 57 58 22 107 42 110 45 19 21 -237 -61 -263 -84 -11 -10
-17 -12 -13 -5 9 15 4 15 -29 0 -20 -9 -28 -9 -38 2 -8 9 -9 11 0 6 14 -8 84
24 77 36 -3 4 2 5 10 2 8 -3 29 8 48 25 39 36 25 39 -47 11z"/>
<path d="M2675 1926 c-109 -39 -262 -111 -287 -133 -10 -8 -15 -21 -12 -27 3
-6 -2 -2 -10 8 -9 11 -16 14 -16 8 0 -7 -3 -11 -7 -10 -11 3 -63 -32 -63 -42
0 -14 49 14 52 29 2 11 6 10 18 -4 8 -11 10 -16 4 -12 -7 4 -17 0 -24 -8 -17
-21 -6 -19 45 9 25 13 41 27 37 31 -4 5 -1 5 6 1 8 -5 21 -1 30 7 9 8 27 18
40 22 12 3 20 11 17 16 -3 5 2 6 11 2 12 -4 15 -3 10 5 -4 7 -2 10 6 7 7 -2
67 25 133 60 66 36 116 64 110 64 -5 0 -50 -15 -100 -33z"/>
<path d="M2845 1914 c-38 -50 -122 -131 -173 -166 -55 -38 -149 -81 -165 -75
-6 2 14 16 46 31 60 29 179 118 231 175 38 40 26 40 -19 0 -67 -61 -232 -152
-384 -210 -21 -8 -22 -8 -12 5 7 9 28 21 46 28 19 6 31 16 28 21 -3 6 -1 7 5
3 6 -3 32 6 59 20 91 51 222 135 230 147 4 7 -6 3 -22 -7 -31 -21 -168 -89
-292 -146 -40 -18 -70 -37 -68 -41 3 -4 -4 -5 -14 -2 -15 4 -20 0 -18 -16 1
-12 7 -21 14 -21 15 0 17 -16 3 -25 -6 -4 -8 -11 -5 -16 4 -5 1 -9 -4 -9 -6 0
-11 8 -11 17 0 35 -13 1 -14 -37 -1 -34 2 -40 20 -40 39 0 185 49 257 87 88
46 217 172 264 256 18 31 30 57 29 57 -2 0 -16 -16 -31 -36z"/>
<path d="M2853 1851 c-129 -125 -191 -255 -215 -447 -8 -69 -8 -114 1 -185 10
-82 38 -217 47 -228 5 -6 48 28 103 82 94 92 173 225 212 359 24 84 36 313 21
388 -10 44 -10 43 -11 -31 -1 -103 -44 -340 -58 -325 -2 2 3 45 11 97 8 52 17
137 20 189 l6 95 -21 -110 c-33 -181 -101 -426 -114 -413 -2 2 5 35 16 73 28
99 79 354 78 390 -1 29 -1 28 -14 -10 -8 -22 -44 -139 -80 -260 -88 -293 -86
-287 -91 -283 -5 6 59 275 95 400 17 59 34 116 36 125 3 10 -8 -10 -24 -43
-31 -65 -83 -210 -101 -283 -21 -81 -21 -34 0 63 25 114 58 206 106 296 29 53
31 59 10 35 -43 -52 -107 -172 -137 -258 -20 -58 -29 -73 -29 -52 0 78 84 250
176 363 40 49 24 39 -43 -27z"/>
<path d="M2625 1523 c-10 -57 -70 -173 -110 -215 -56 -59 -59 -48 -5 22 28 36
53 82 70 125 14 38 5 30 -24 -19 -14 -24 -41 -64 -60 -89 -19 -25 -31 -49 -28
-53 4 -4 2 -4 -5 -1 -13 8 -56 -41 -48 -54 6 -8 -28 -4 -45 6 -5 3 -12 -6 -16
-20 -3 -14 -12 -25 -19 -25 -14 0 -29 -29 -20 -38 3 -3 5 0 5 6 0 7 8 12 17
12 14 0 12 -5 -8 -26 l-24 -27 24 13 c18 9 26 9 35 -1 8 -9 8 -10 -1 -5 -6 3
-29 -6 -50 -20 -21 -15 -29 -24 -18 -20 11 4 27 9 36 11 63 13 209 157 254
250 30 63 63 190 52 202 -3 2 -8 -13 -12 -34z"/>
</g>
</svg>
